<svg width="78rem" height="24rem" viewBox="0 0 78 24" xmlns="http://www.w3.org/2000/svg">
<title>Spotify</title>
	<style>
		.s0 { fill: #FFF } 
	</style>
	<path id="Layer" fill-rule="evenodd" class="s0" d="m35.3 14.4c0 2-1.5 3.3-3.9 3.3-1.6 0-3.2-0.6-4.4-1.7q-0.1-0.1-0.1-0.1 0-0.1 0.1-0.1l1.1-1.4q0 0 0 0 0 0 0.1 0 0 0 0 0 0 0 0 0c1.1 1 2.1 1.4 3.3 1.4 1 0 1.7-0.5 1.7-1.2 0-0.7-0.3-1.1-2.3-1.6-2.2-0.5-3.6-1.3-3.6-3.3 0-1.9 1.6-3.3 3.7-3.3 1.5 0 2.8 0.5 3.9 1.4q0.1 0 0.1 0.1 0 0-0.1 0.1l-0.9 1.4q-0.1 0-0.1 0 0 0.1 0 0.1-0.1 0-0.1-0.1-1.4-1-2.8-1c-0.9 0-1.6 0.4-1.6 1.1 0 0.7 0.4 1.1 2.4 1.6 2.5 0.6 3.5 1.5 3.5 3.3zm9.1-1c0 2.8-1.9 4.3-3.8 4.3q-1.5 0-2.5-1.1v3.3q0 0-0.1 0.1 0 0-0.1 0h-1.8c-0.1 0-0.1 0-0.1-0.1v-10.6q0 0 0 0 0 0 0-0.1 0 0 0.1 0 0 0 0 0h1.8q0.1 0 0.1 0 0.1 0.1 0.1 0.1v1q1-1.3 2.5-1.3c1.9 0 3.8 1.5 3.8 4.4zm-4.2-2.5c-1.3 0-2.2 1.1-2.2 2.5 0 1.4 0.9 2.5 2.2 2.5 1.2 0 2.1-1.1 2.1-2.5 0-1.4-0.9-2.5-2.1-2.5zm9.1-1.9c2.5 0 4.4 1.9 4.4 4.4 0 2.4-2 4.4-4.4 4.4-2.4 0-4.3-2-4.3-4.4 0-2.4 1.9-4.4 4.3-4.4zm2.3 4.4c0-1.4-1-2.5-2.3-2.5-1.3 0-2.2 1.1-2.2 2.5 0 1.4 0.9 2.5 2.2 2.5 1.3 0 2.3-1.1 2.3-2.5zm7.3-4.2q0 0 0 0 0 0 0.1 0 0 0.1 0 0.1 0 0 0 0v1.6q0 0.1 0 0.1 0 0 0 0-0.1 0-0.1 0.1 0 0 0 0h-2v3.8c0 0.6 0.2 0.9 0.8 0.9q0.6 0 1.1-0.3 0 0 0 0 0.1 0 0.1 0 0 0 0 0.1 0.1 0 0.1 0v1.6q0 0-0.1 0 0 0.1 0 0.1c-0.5 0.3-1.1 0.4-1.7 0.4q-2.4 0-2.4-2.5v-4.1h-0.9c0 0-0.1-0.1-0.1-0.2v-1.6q0 0 0 0 0 0 0-0.1 0.1 0 0.1 0 0 0 0 0h0.9v-2.1q0 0 0-0.1 0.1 0 0.1 0h1.8q0.1 0 0.1 0 0 0 0 0 0.1 0 0.1 0.1 0 0 0 0v2.1h2zm6.9 0h3.1q0 0 0.1 0 0 0.1 0 0.1l2.1 5.7 1.9-5.7q0.1 0 0.1-0.1 0 0 0.1 0h1.9q0 0 0 0 0 0 0.1 0.1 0 0 0 0 0 0.1 0 0.1l-3.2 8.3c-0.6 1.7-1.3 2.4-2.7 2.4-0.7 0-1.3-0.2-1.9-0.5q-0.1-0.1-0.1-0.1 0-0.1 0-0.1l0.6-1.4q0.1 0 0.1 0 0-0.1 0-0.1 0 0 0.1 0 0 0 0 0 0.5 0.3 1 0.3c0.4 0 0.7-0.1 1-0.8l-2.6-6.3h-1.7v6.3c0 0.1 0 0.2-0.1 0.2h-1.8q-0.1 0-0.1-0.2v-6.3h-0.9c-0.1 0-0.2-0.1-0.2-0.2v-1.6q0 0 0.1-0.1 0 0 0.1 0h0.8v-0.4c0-1.8 0.9-2.8 2.6-2.8q0.8 0 1.5 0.2 0 0.1 0.1 0.1 0 0 0 0.1v1.5q0 0.1 0 0.1 0 0-0.1 0 0 0.1 0 0.1 0 0-0.1 0c-0.3-0.2-0.6-0.2-1-0.2-0.6 0-0.9 0.3-0.9 1.1zm-3.9 0q0 0 0 0.1v8.1c0 0.1-0.1 0.1-0.1 0.1h-1.8c-0.1 0-0.2 0-0.2-0.1v-8.1q0-0.1 0.1-0.1 0 0 0.1 0h1.8q0 0 0.1 0zm0.3-2.4c0 0.3-0.2 0.7-0.4 0.9-0.2 0.3-0.6 0.4-0.9 0.4q-0.3 0-0.5-0.1-0.3-0.1-0.4-0.3-0.2-0.2-0.3-0.4-0.1-0.2-0.1-0.5c0-0.4 0.1-0.7 0.4-0.9 0.2-0.3 0.5-0.4 0.9-0.4 0.7 0 1.3 0.6 1.3 1.3zm14.5 5q-0.2 0-0.5-0.1-0.2-0.1-0.4-0.3-0.2-0.2-0.3-0.5-0.1-0.2-0.1-0.5c0-0.7 0.6-1.3 1.3-1.3q0.3 0 0.5 0.1 0.3 0.1 0.4 0.3 0.2 0.2 0.3 0.4 0.1 0.3 0.1 0.5c0 0.8-0.6 1.4-1.3 1.4zm0-2.5c-0.6 0-1.1 0.5-1.1 1.1 0 0.7 0.5 1.2 1.1 1.2 0.7 0 1.2-0.5 1.2-1.2 0-0.6-0.5-1.1-1.2-1.1zm0.3 1.3l0.4 0.5h-0.3l-0.4-0.5h-0.2v0.5h-0.3v-1.4h0.6c0.3 0 0.5 0.2 0.5 0.5q0 0.1-0.1 0.2 0 0.1-0.2 0.2zm-0.2-0.6h-0.3v0.4h0.3q0.3 0 0.3-0.2 0-0.2-0.3-0.2zm-64.8-10.1c6.6 0 12 5.4 12 12 0 6.7-5.4 12-12 12-6.6 0-12-5.3-12-12 0-6.6 5.4-12 12-12zm7 14.1c0.2-0.5 0.1-1-0.3-1.3-3.7-2.3-9.2-2.9-13.5-1.6-0.5 0.2-0.8 0.7-0.6 1.2 0.1 0.5 0.6 0.7 1.1 0.6 3.8-1.2 8.8-0.6 12 1.4 0.4 0.3 1 0.1 1.3-0.3zm-1.5 3.3c0.2-0.4 0.1-0.9-0.2-1.1-3.2-1.9-7.1-2.4-11.7-1.3-0.4 0.1-0.7 0.5-0.6 0.9 0.1 0.4 0.5 0.6 0.9 0.5 4.2-0.9 7.8-0.5 10.6 1.2 0.3 0.2 0.8 0.1 1-0.2zm3.1-7.1c0.4-0.5 0.2-1.2-0.4-1.5-4.4-2.7-11.5-2.9-15.7-1.6-0.6 0.1-0.9 0.8-0.7 1.4 0.1 0.5 0.8 0.9 1.4 0.7 3.7-1.1 10-0.9 13.9 1.4 0.5 0.3 1.2 0.1 1.5-0.4z"/>
</svg>